<svg xmlns="http://www.w3.org/2000/svg" width="1400" height="600" viewBox="0 0 1400 600">
<style>text{font-family:Arial,sans-serif;fill:#f8f8f2}.t{font-size:26px;font-weight:700}.s{font-size:19px;fill:#aeb6c8}.owned{fill:#1f2d29;stroke:#50fa7b;stroke-width:2}.borrow{fill:#24202f;stroke:#bd93f9;stroke-width:2}.grid{fill:#20232f;stroke:#8be9fd;stroke-width:2}.a{stroke:#6272a4;stroke-width:4;fill:none;marker-end:url(#m)}</style><defs><marker id="m" markerWidth="10" markerHeight="10" refX="9" refY="3" orient="auto"><path d="M0,0 L0,6 L9,3 z" fill="#6272a4"/></marker></defs>
<text x="350" y="55" text-anchor="middle" class="t">Datasource model → owned</text><rect x="70" y="120" rx="20" width="260" height="150" class="owned"/><text x="200" y="180" text-anchor="middle" class="t">ModelBase</text><text x="200" y="220" text-anchor="middle" class="s">fuente autoritativa</text><rect x="430" y="120" rx="20" width="260" height="150" class="owned"/><text x="560" y="180" text-anchor="middle" class="t">DataStore</text><text x="560" y="220" text-anchor="middle" class="s">creado por Grid</text><rect x="790" y="120" rx="20" width="260" height="150" class="grid"/><text x="920" y="180" text-anchor="middle" class="t">Grid</text><text x="920" y="220" text-anchor="middle" class="s">owner del lifecycle</text><path d="M330 195 H422" class="a"/><path d="M690 195 H782" class="a"/>
<text x="350" y="375" text-anchor="middle" class="t">Datasource store → borrowed</text><rect x="70" y="430" rx="20" width="260" height="130" class="borrow"/><text x="200" y="485" text-anchor="middle" class="t">Feature / ViewData</text><text x="200" y="525" text-anchor="middle" class="s">owner</text><rect x="430" y="430" rx="20" width="260" height="130" class="borrow"/><text x="560" y="485" text-anchor="middle" class="t">DataStore</text><text x="560" y="525" text-anchor="middle" class="s">shared / externo</text><rect x="790" y="430" rx="20" width="260" height="130" class="grid"/><text x="920" y="485" text-anchor="middle" class="t">Grid</text><text x="920" y="525" text-anchor="middle" class="s">usa, no posee</text><path d="M330 495 H422" class="a"/><path d="M690 495 H782" class="a"/></svg>